<?xml version="1.0" encoding="UTF-8"?>
<!-- Created with Inkscape (http://www.inkscape.org/) -->
<svg width="141.57mm" height="9.2583mm" version="1.1" viewBox="0 0 141.57 9.2583" xmlns="http://www.w3.org/2000/svg">
    <style>
        path {
            fill: black;
        }
        path.accent {
            fill: #0080ff;
        }
        @media (prefers-color-scheme: dark) {
            path { fill: white; }
            path.accent { fill: #56b0ff; }
        }
    </style>
 <g transform="translate(-30.319 -104.66)">
  <g stroke-width=".26458" aria-label="The DGG Pragmatic Papers">
   <path d="m30.319 104.84 0.3048 2.1463h0.0762s-0.254-2.0066 1.6002-2.0066c0.3683 0 0.4826 0.2159 0.4826 0.7112v7.0993c0 0.7239-0.4826 0.9271-0.4826 0.9271v0.0762h2.4765v-0.0762s-0.4826-0.2032-0.4826-0.9271v-7.0739c0-0.508 0.1524-0.7366 0.4826-0.7366 1.9685 0 1.6002 2.0193 1.6002 2.0193h0.0762l0.3048-2.159zm13.094 0.0762v-0.0762h-2.4765v0.0762s0.4826 0.2032 0.4826 0.9271v3.9243c0 0.1143-0.0889 0.2032-0.1905 0.2032h-2.0447c-0.1143 0-0.2032-0.0889-0.2032-0.2032v-3.9243c0-0.7239 0.4826-0.9271 0.4826-0.9271v-0.0762h-2.4765v0.0762s0.4826 0.2032 0.4826 0.9271v6.9469c0 0.7239-0.4826 0.9271-0.4826 0.9271v0.0762h2.4765v-0.0762s-0.4826-0.2032-0.4826-0.9271v-2.4638c0-0.1016 0.0889-0.1905 0.2032-0.1905h2.0447c0.1016 0 0.1905 0.0889 0.1905 0.1905v2.4638c0 0.7239-0.4826 0.9271-0.4826 0.9271v0.0762h2.4765v-0.0762s-0.4826-0.2032-0.4826-0.9271v-6.9469c0-0.7239 0.4826-0.9271 0.4826-0.9271zm5.8547 6.0579c0.1397 0 0.2413-0.1016 0.2413-0.2413 0-0.127-0.1016-0.2413-0.2413-0.2413-0.127 0-0.2286 0.1143-0.2286 0.2413 0 1.778 0.1905 2.9337-1.2065 2.9337h-1.016c-0.508 0-0.9144-0.4191-0.9144-0.9271v-2.921c0-0.1524 0.127-0.2794 0.2667-0.2794h0.4826c1.0414 0 1.3208 0.8509 1.3208 1.8923v0.127h0.0762v-4.1656h-0.0762v0.127c0 1.0414-0.2794 1.8923-1.3208 1.8923h-0.4826c-0.1397 0-0.2667-0.127-0.2667-0.2794v-3.2385c0-0.508 0.4064-0.9144 0.9144-0.9144h0.5715c1.9558 0 1.5875 2.0193 1.5875 2.0193h0.0889l0.3048-2.159h-5.461v0.0762s0.4826 0.2032 0.4826 0.9271v6.9469c0 0.7239-0.4826 0.9271-0.4826 0.9271v0.0762h5.7658s-0.8382-2.8194-0.4064-2.8194z"/>
   <path class="accent" d="m60.012 109.32c0-3.3782-1.397-4.4831-3.1369-4.4831h-3.2893v0.0762s0.4826 0.2032 0.4826 0.9271v6.9469c0 0.7239-0.4826 0.9271-0.4826 0.9271v0.0762h3.4544c1.5875 0 2.9718-1.27 2.9718-4.4704zm-1.6002 2.2987c0 1.1303-0.3683 2.0447-1.4986 2.0447-0.7366 0-1.3335-0.5969-1.3335-1.3335v-6.0198c0-0.7366 0.5969-1.3335 1.3335-1.3335 1.1303 0 1.4986 0.9144 1.4986 2.032zm8.2804-2.7305v-0.0762h-2.4765v0.0762s0.4826 0.2032 0.4826 0.9271l-0.0127 2.6162c0 0.7239-0.4445 1.3208-0.889 1.3208h-0.4318c-0.4826 0-0.8763-0.381-0.8763-0.8636v-6.6421c0-0.7747 0.635-1.4097 1.4097-1.4097h0.0762c1.0287 0 1.905 0.6223 1.5748 2.1463h0.0889l0.4826-2.0066s-0.9906-0.2794-2.6162-0.2794c-2.3241 0-2.8321 2.0701-2.8321 4.6101 0 2.5527 0.508 4.6101 2.8321 4.6101 0.5334 0 1.0414-0.1397 1.4859-0.4699 0.1905 0.2159 0.4699 0.3429 0.7747 0.3429h0.9271v-0.0762s-0.4826-0.2032-0.4826-0.9271v-2.9718c0-0.7239 0.4826-0.9271 0.4826-0.9271zm6.5659 0v-0.0762h-2.4765v0.0762s0.4826 0.2032 0.4826 0.9271l-0.0127 2.6162c0 0.7239-0.4445 1.3208-0.889 1.3208h-0.4318c-0.4826 0-0.8763-0.381-0.8763-0.8636v-6.6421c0-0.7747 0.635-1.4097 1.4097-1.4097h0.0762c1.0287 0 1.905 0.6223 1.5748 2.1463h0.0889l0.4826-2.0066s-0.9906-0.2794-2.6162-0.2794c-2.3241 0-2.8321 2.0701-2.8321 4.6101 0 2.5527 0.508 4.6101 2.8321 4.6101 0.5334 0 1.0414-0.1397 1.4859-0.4699 0.1905 0.2159 0.4699 0.3429 0.7747 0.3429h0.9271v-0.0762s-0.4826-0.2032-0.4826-0.9271v-2.9718c0-0.7239 0.4826-0.9271 0.4826-0.9271z"/>
   <path d="m80.078 104.84h-2.8829v0.0762s0.4826 0.1778 0.4826 0.8382v7.0358c0 0.7239-0.4826 0.9271-0.4826 0.9271v0.0762h2.4765v-0.0762s-0.4826-0.2032-0.4826-0.9271v-2.5781c0-0.2286 0.1778-0.4064 0.4064-0.4064h0.5334c3.7338 0 4.3053-4.9657-0.0508-4.9657zm1.524 2.9845c0 1.016-0.3683 1.8288-1.4859 1.8288h-0.5207c-0.2286 0-0.4064-0.1778-0.4064-0.3937v-3.0988c0-0.6604 0.381-1.1938 1.1176-1.1938 0.9779 0 1.2954 0.8255 1.2954 1.8288zm7.8486 4.9149c-0.3048-0.7493-0.6604-1.651-0.9779-2.4765-0.2159-0.5461-0.7239-0.9017-1.3589-1.0414 3.0734-0.5842 3.2893-4.3815-0.762-4.3815h-2.8829v0.0762s0.4826 0.1778 0.4826 0.8382v7.0358c0 0.7239-0.4826 0.9271-0.4826 0.9271v0.0762h2.4765v-0.0762s-0.4826-0.2032-0.4826-0.9271v-6.6294c0-0.6604 0.381-1.1938 1.1176-1.1938 0.9779 0 1.2954 0.8255 1.2954 1.8288v0.508c0 1.016-0.3683 1.8415-1.4859 1.8415h-0.762v0.1397s0.6604-0.1143 1.0922 1.0033c0.3556 0.9017 0.7112 1.8161 0.9906 2.5019 0.2159 0.5461-0.0508 0.9271-0.0508 0.9271v0.0762h2.54v-0.0762s-0.4826-0.3175-0.7493-0.9779zm6.8072 0.0508c-0.4191-1.1557-2.6289-7.9502-2.6289-7.9502h-0.1524s-1.9177 6.0579-2.5654 7.9502c-0.2286 0.6731-0.635 0.9271-0.635 0.9271v0.0762h0.9271v-0.0762s-0.3429-0.1905-0.1016-0.9271c0.0889-0.2794 0.2286-0.7112 0.3937-1.2192 0.0381-0.127 0.1651-0.2159 0.2921-0.2159h2.0955c0.1397 0 0.254 0.0889 0.2921 0.2159 0.1778 0.508 0.3175 0.9398 0.4064 1.2192 0.1905 0.5461-0.1016 0.9271-0.1016 0.9271v0.0762h2.413v-0.0762s-0.3937-0.254-0.635-0.9271zm-4.572-1.8161c0.508-1.5875 1.1176-3.4798 1.1176-3.4798s0.6477 1.8923 1.1811 3.4798c0.0254 0.1143-0.0508 0.2286-0.1651 0.2286h-1.9685c-0.1143 0-0.2032-0.1143-0.1651-0.2286zm11.036-2.0828v-0.0762h-2.4765v0.0762s0.4826 0.2032 0.4826 0.9271l-0.0127 2.6162c0 0.7239-0.4445 1.3208-0.889 1.3208h-0.4318c-0.4826 0-0.8763-0.381-0.8763-0.8636v-6.6421c0-0.7747 0.635-1.4097 1.4097-1.4097h0.0762c1.0287 0 1.905 0.6223 1.5748 2.1463h0.0889l0.4826-2.0066s-0.9906-0.2794-2.6162-0.2794c-2.3241 0-2.8321 2.0701-2.8321 4.6101 0 2.5527 0.508 4.6101 2.8321 4.6101 0.5334 0 1.0414-0.1397 1.4859-0.4699 0.1905 0.2159 0.4699 0.3429 0.7747 0.3429h0.9271v-0.0762s-0.4826-0.2032-0.4826-0.9271v-2.9718c0-0.7239 0.4826-0.9271 0.4826-0.9271zm7.8994-3.9751v-0.0762h-2.0193l-1.3462 5.6261c-0.0254 0.0762-0.1143 0.0762-0.1397 0.0127l-2.0193-5.6388h-1.9304v0.0762s0.4826 0.2032 0.4826 0.9271v6.9469c0 0.7239-0.4826 0.9271-0.4826 0.9271v0.0762h1.1303v-0.0762s-0.4826-0.2032-0.4826-0.9271v-6.5532c0-0.0889 0.1143-0.1016 0.1524-0.0254l2.5527 7.5819h0.127l1.8415-7.4295c0.0254-0.0762 0.1524-0.0635 0.1524 0.0254v6.4008c0 0.7239-0.4826 0.9271-0.4826 0.9271v0.0762h2.4638v-0.0762s-0.4826-0.2032-0.4826-0.9271v-6.9469c0-0.7239 0.4826-0.9271 0.4826-0.9271zm6.1468 7.874c-0.4191-1.1557-2.6289-7.9502-2.6289-7.9502h-0.1524s-1.9177 6.0579-2.5654 7.9502c-0.2286 0.6731-0.635 0.9271-0.635 0.9271v0.0762h0.9271v-0.0762s-0.3429-0.1905-0.1016-0.9271c0.0889-0.2794 0.2286-0.7112 0.3937-1.2192 0.0381-0.127 0.1651-0.2159 0.2921-0.2159h2.0955c0.1397 0 0.254 0.0889 0.2921 0.2159 0.1778 0.508 0.3175 0.9398 0.4064 1.2192 0.1905 0.5461-0.1016 0.9271-0.1016 0.9271v0.0762h2.413v-0.0762s-0.3937-0.254-0.635-0.9271zm-4.572-1.8161c0.508-1.5875 1.1176-3.4798 1.1176-3.4798s0.6477 1.8923 1.1811 3.4798c0.0254 0.1143-0.0508 0.2286-0.1651 0.2286h-1.9685c-0.1143 0-0.2032-0.1143-0.1651-0.2286zm4.064-6.1341 0.3048 2.1463h0.0762s-0.254-2.0066 1.6002-2.0066c0.3683 0 0.4826 0.2159 0.4826 0.7112v7.0993c0 0.7239-0.4826 0.9271-0.4826 0.9271v0.0762h2.4765v-0.0762s-0.4826-0.2032-0.4826-0.9271v-7.0739c0-0.508 0.1524-0.7366 0.4826-0.7366 1.9685 0 1.6002 2.0193 1.6002 2.0193h0.0762l0.3048-2.159zm8.6614 1.0033c0-0.7239 0.4826-0.9271 0.4826-0.9271v-0.0762h-2.4765v0.0762s0.4826 0.2032 0.4826 0.9271v6.9469c0 0.7239-0.4826 0.9271-0.4826 0.9271v0.0762h2.4765v-0.0762s-0.4826-0.2032-0.4826-0.9271zm6.6675 5.3848c-0.1651 1.0668-0.889 2.0955-2.0701 2.0955-0.8763 0-1.7018-0.6477-1.7018-1.9939v-5.08c0-0.7747 0.635-1.4097 1.4097-1.4097h0.0762c1.0287 0 1.905 0.6223 1.5748 2.1463h0.0889l0.4826-2.0066s-0.9906-0.2794-2.6162-0.2794c-2.3241 0-2.8321 2.0701-2.8321 4.6101 0 2.5527 0.508 4.6101 2.8321 4.6101 1.2192 0 2.6162-0.7747 2.8956-2.6924zm6.8961-6.3881h-2.8829v0.0762s0.4826 0.1778 0.4826 0.8382v7.0358c0 0.7239-0.4826 0.9271-0.4826 0.9271v0.0762h2.4765v-0.0762s-0.4826-0.2032-0.4826-0.9271v-2.5781c0-0.2286 0.1778-0.4064 0.4064-0.4064h0.5334c3.7338 0 4.3053-4.9657-0.0508-4.9657zm1.524 2.9845c0 1.016-0.3683 1.8288-1.4859 1.8288h-0.5207c-0.2286 0-0.4064-0.1778-0.4064-0.3937v-3.0988c0-0.6604 0.381-1.1938 1.1176-1.1938 0.9779 0 1.2954 0.8255 1.2954 1.8288zm6.477 4.9657c-0.4191-1.1557-2.6289-7.9502-2.6289-7.9502h-0.1524s-1.9177 6.0579-2.5654 7.9502c-0.2286 0.6731-0.635 0.9271-0.635 0.9271v0.0762h0.9271v-0.0762s-0.3429-0.1905-0.1016-0.9271c0.0889-0.2794 0.2286-0.7112 0.3937-1.2192 0.0381-0.127 0.1651-0.2159 0.2921-0.2159h2.0955c0.1397 0 0.254 0.0889 0.2921 0.2159 0.1778 0.508 0.3175 0.9398 0.4064 1.2192 0.1905 0.5461-0.1016 0.9271-0.1016 0.9271v0.0762h2.413v-0.0762s-0.3937-0.254-0.635-0.9271zm-4.572-1.8161c0.508-1.5875 1.1176-3.4798 1.1176-3.4798s0.6477 1.8923 1.1811 3.4798c0.0254 0.1143-0.0508 0.2286-0.1651 0.2286h-1.9685c-0.1143 0-0.2032-0.1143-0.1651-0.2286zm8.2423-6.1341h-2.8829v0.0762s0.4826 0.1778 0.4826 0.8382v7.0358c0 0.7239-0.4826 0.9271-0.4826 0.9271v0.0762h2.4765v-0.0762s-0.4826-0.2032-0.4826-0.9271v-2.5781c0-0.2286 0.1778-0.4064 0.4064-0.4064h0.5334c3.7338 0 4.3053-4.9657-0.0508-4.9657zm1.524 2.9845c0 1.016-0.3683 1.8288-1.4859 1.8288h-0.5207c-0.2286 0-0.4064-0.1778-0.4064-0.3937v-3.0988c0-0.6604 0.381-1.1938 1.1176-1.1938 0.9779 0 1.2954 0.8255 1.2954 1.8288zm7.2136 3.1496c0.1397 0 0.2413-0.1016 0.2413-0.2413 0-0.127-0.1016-0.2413-0.2413-0.2413-0.127 0-0.2286 0.1143-0.2286 0.2413 0 1.778 0.1905 2.9337-1.2065 2.9337h-1.016c-0.508 0-0.9144-0.4191-0.9144-0.9271v-2.921c0-0.1524 0.127-0.2794 0.2667-0.2794h0.4826c1.0414 0 1.3208 0.8509 1.3208 1.8923v0.127h0.0762v-4.1656h-0.0762v0.127c0 1.0414-0.2794 1.8923-1.3208 1.8923h-0.4826c-0.1397 0-0.2667-0.127-0.2667-0.2794v-3.2385c0-0.508 0.4064-0.9144 0.9144-0.9144h0.5715c1.9558 0 1.5875 2.0193 1.5875 2.0193h0.0889l0.3048-2.159h-5.461v0.0762s0.4826 0.2032 0.4826 0.9271v6.9469c0 0.7239-0.4826 0.9271-0.4826 0.9271v0.0762h5.7658s-0.8382-2.8194-0.4064-2.8194zm6.8199 1.7653c-0.3048-0.7493-0.6604-1.651-0.9779-2.4765-0.2159-0.5461-0.7239-0.9017-1.3589-1.0414 3.0734-0.5842 3.2893-4.3815-0.762-4.3815h-2.8829v0.0762s0.4826 0.1778 0.4826 0.8382v7.0358c0 0.7239-0.4826 0.9271-0.4826 0.9271v0.0762h2.4765v-0.0762s-0.4826-0.2032-0.4826-0.9271v-6.6294c0-0.6604 0.381-1.1938 1.1176-1.1938 0.9779 0 1.2954 0.8255 1.2954 1.8288v0.508c0 1.016-0.3683 1.8415-1.4859 1.8415h-0.762v0.1397s0.6604-0.1143 1.0922 1.0033c0.3556 0.9017 0.7112 1.8161 0.9906 2.5019 0.2159 0.5461-0.0508 0.9271-0.0508 0.9271v0.0762h2.54v-0.0762s-0.4826-0.3175-0.7493-0.9779zm4.5212-4.0513c-0.5715-0.4572-2.2479-1.2319-2.2479-2.5908 0-1.0287 0.8001-1.2573 1.524-1.2573 1.2192 0 1.9177 0.7366 1.6891 2.1844h0.0889l0.3683-2.1844s-1.4224-0.1778-2.0447-0.1778c-1.2573 0-2.9083 0.5461-2.9083 2.1209 0 1.4478 1.0287 2.1844 1.7653 2.7813 0.5842 0.4572 1.9812 1.3335 1.9812 2.2733 0 1.2065-0.7493 1.905-1.4605 1.905-1.2192 0-1.9177-0.7366-1.6891-2.1844h-0.0889l-0.3683 2.1844s1.6256 0.1778 2.2479 0.1778c1.9939 0 2.794-1.1811 2.794-2.54 0-1.1176-0.6096-1.8669-1.651-2.6924z"/>
  </g>
 </g>
</svg>
