<?xml version="1.0" encoding="UTF-8"?>
<svg width="357.89" height="106.54" version="1.1" xmlns="http://www.w3.org/2000/svg">
<style>
    path.text {
        fill: #ffffff;
    }
    path.accent {
        fill: #56b0ff;
    }
    @media (prefers-color-scheme: dark) {
        path.text { fill: #ffffff; }
        path.accent { fill: #56b0ff; }
    }
</style>
 <g transform="translate(-453.53 -227.8)">
  <g transform="matrix(.065201 0 0 .065201 684.56 227.74)">
   <path d="m205.99 248.58c-4.402 7.673-9.704 14.403-16.242 20.315-17.617 15.932-36.617 24.213-59.996 26.439-9.853 0.939-25.916 0.63571-35.812 0.63571 10.527 20.145 31.784 43.338 47.566 59.284 6.294 6.36 20.329 9.387 23.978 17.75 2.479 5.68 2.517 11.921 2.518 18 7.141-0.583 14.096-3.149 21-4.986 11.639-3.097 23.304-6.199 35-9.119 39.198-9.787 78.355-19.414 118-27.344 18.905-3.782 38.624-9.391 58-9.551 1.211 28.134 22.966 48.192 44 63.873 8.734 6.511 19.625 14.798 31 15.072 4.724 0.114 9.326-1.315 14-1.775 11.043-1.087 21.979-2.527 33-3.885 44.319-5.461 88.507-14.258 131-28.286 19.813-6.54 39.04-16.293 59-21.999 0 16.223-10.593 35.457-3.787 51 2.883 6.585 8.577 11.776 13.501 16.83 13.963 14.33 31.491 25.684 50.286 32.64 6.95 2.572 13.94 4.935 21 7.186 3.241 1.033 7.018 1.517 9.961 3.282 4.576 2.744 7.707 8.138 11.205 12.062 6.682 7.496 15.836 14.351 20.834 23 3.459-7.198 9.055-14.545 11.177-22.25 1.606-5.835 6.118-10.342 9.25-15.5 9.964-16.412 25.15-28.787 30.24-48 4.842-18.277 1.958-39.46-0.262-58-4.2977-41.347-14.588-80.967-25.267-121-5-22.174-7.092-44.939-14.544-66.5-2.444-7.071-5.51-17.422-10.734-23.036-7.012-7.535-25.866-6.214-35.11-6.214-23.528 0-46.903-1.288-69.5-8.332-22.149-6.904-42.55-17.575-61.5-31.019-11.439-8.115-22.337-18.69-35.5-24.043-14.004-5.6958-28.976-9.8552-43.75-12.427-40.005-6.9634-74.657-5.0785-115-1.8356-6.673 0.5364-19.096 1.9276-25.75 2.8711-41.483 5.8816-69.205 13.195-109.75 23.332-5.902 1.476-27.114 8.916-33 10.548-18.275 5.066-39.24 10.18-55.25 20.206-10.67 6.682-22.633 17.507-29.642 28.2-10.698 16.322-4.4302 37.511-5.5502 55.557-2.0792 15.606-2.5932 23.564-9.5698 37.019z" fill="#2075ce"/>
   <path d="m217 692c-12.277 24.994-29.038 47.535-40.649 73-14.3 31.362-23.209 64.782-26.521 99-1.221 12.617-1.261 25.383 1e-3 38 1.24 12.403 2.655 23.359 11.909 32.736 17.709 17.944 50.773 10.578 61.846-10.736 2.819-5.427 2.414-12.071 2.414-18-1e-3 -13.26-2.345-26.717-0.714-40 2.395-19.503 7.322-38.682 14.37-57 3.985-10.357 11.079-20.2 13.344-31-3.529-1.964-6.897-3.685-9.362-7.019-10.463-14.151-1.668-31.281 13.362-36.981-4.938-8.454-5.827-19.485-7.296-29-3.915-25.347-4.91-51.889 8.296-75-12.83-7.417-23.148-21.194-33.086-32-34.702-37.735-62.147-86.453-64.433-138.65-0.659-15.055 0.7045-30.367 3.5615-45.177 2.526-13.098 6.4076-25.716 2.5266-39.177-2.975-10.316-13.3-17.648-20.554-24.996-16.128-16.336-33.358-31.404-47.015-50.004 10.225 0 20.82 0.8 31-0.17 24.144-2.299 49.607-11.906 67.015-29.348 5.409-5.42 10.902-11.374 14.723-18.058 3.6011-6.2999 11.007-31.06 11.237-40.424 0.144-5.913 0.443-12.111-0.146-18-1.273-12.735-4.325-25.399 3.279-37 7.257-11.071 17.838-19.027 28.892-25.95 16.01-10.026 33.725-18.39 52-23.456 6.21-1.721 12.829-1.791 19-3.569 57.813-16.653 117.88-29.432 178-32.064 34.203-1.4976 69.737-0.3929 103 8.8233 8.105 2.2458 17.587 4.2554 25 8.267 13.476 7.2932 24.337 19.02 37 27.593 13.843 9.372 29.542 16.88 45 23.161 23.296 9.465 51.968 13.073 77 13.194 7.287 0.035 14.729 0.409 22-0.088 6.169-0.423 11.676-1.975 16.895 2.483 5.688 4.859 8.123 13.755 10.438 20.606 6.042 17.885 7.4211 37.039 10.514 55.549 3.712 22.224 11.094 42.781 17.067 64.451 4.901 17.783 9.442 35.724 11.7 54 2.8396 22.984 6.8399 47.735 1.4559 70.447-5.953 25.107-32.044 37.611-39.849 62.553-2.333 7.455-4.506 16.207-5.135 24-0.589 7.291-0.457 17.472-4.01 24-2.646 4.863-7.112 8.38-11.077 12.089-8.365 7.827-16.882 15.015-25.999 21.95-26.466 20.13-54.47 37.758-83 54.826-12.116 7.248-24.435 17.841-38 22.135 17.242 21.287 21.287 47.627 21.287 74.274 10.647-5.064 21.845-10.986 32.713-15.543 3.058-1.281 9.392-5.083 12.661-3.57 3.214 1.487 5.067 6.977 6.819 9.839 6.088 9.945 10.963 20.593 16.171 31 16.083 32.14 30.621 64.699 38.014 100 2.203 10.519 4.887 21.27 5.374 32 0.308 6.777 2.071 13.307 2.787 20 0.493 4.604-0.477 9.458 0.473 14 2.902 13.883 12.584 24.273 25.702 28.949 3.969 1.415 7.769 2.182 11.999 2.011 4.892-0.198 10.386-1.427 15-3.064 27.775-9.855 24.43-42.627 20-65.896-2.971-15.606-4.028-31.526-7.895-47-9.754-39.027-24.775-75.236-42.857-111-7.34-14.516-14.721-28.788-22.464-43.038-1.865-3.432-8.07-11.972-5.967-15.753 1.412-2.538 4.876-4.191 7.183-5.794 5.626-3.913 11.453-7.54 17-11.566 18.137-13.165 37.369-26.547 52.83-42.887 11.413-12.062 21.507-25.631 25.692-41.961 2.008-7.839 3.529-15.948 4.308-24 0.597-6.159 0.698-12.246 3.359-18 4.607-9.964 15.616-17.078 22.066-26 12.198-16.875 19.378-37.474 22.317-58 7.287-50.886-7.329-104.14-20.05-153-3.398-13.052-8.406-25.715-10.911-39-8.275-43.876-10.749-93.617-45.611-125.91-12.827-11.882-30.64-19.184-48-20.92-16.495-1.6493-33.44 0.5153-50-0.2099-13.213-0.5785-27.573-3.4983-40-8.0146-27.94-10.154-47.502-32.324-73-46.507-7.451-4.144-15.849-6.9823-24-9.4027-98.748-29.322-201.59-16.843-300 7.0655-38.229 9.2872-76.029 17.19-111.91 33.849-36.638 17.01-74.881 47.965-86.181 88.049-4.78 16.955-1.916 33.796-1.909 51 4e-3 11.078 0.654 20.088-10 26.521-19.792 11.951-45.609 2.141-64-7.83-14.146-7.668-25.049-15.562-42-13.507-15.206 1.845-27.896 13.877-30.536 28.816-1.1958 6.765 0.065262 14.274 1.1265 21 6.4186 40.677 24.407 79.788 52.499 110 7.6955 8.276 15.753 16.137 23.91 23.961 3.2802 3.146 8.9955 6.477 10.323 11.078 0.9545 3.31-0.4962 7.674-1.125 10.961-1.0654 5.569-1.7176 11.341-2.1073 17-1.4683 21.321-0.9788 42.789 2.0803 64 8.7137 60.418 43.33 114.83 83.737 159 4.831 5.28 8.924 10.965 14.093 15.985 4.4548 4.3088 9.4298 7.6412 12 10.058 6.193 5.838 13.811 12.188 20 16.957z" fill="#1b4773"/>
   <path d="m167.87 391.33c-0.585 7.159-3.0064 13.65-4.4184 20.669-1.396 6.939-1.916 13.978-2.618 21-0.466 4.662-2.244 11.122 0.107 15.522l79.105 166.48c0.95385 0.96693 1.8358 1.8772 2.8628 2.9 1.8799 1.872 3.6728 3.6638 5.6368 5.3021 2.3758 1.9818 4.0713 3.3289 6.1263 4.7395 0.98166 0.67383 2.2057 1.533 3.3314 2.0548 3.136-6.297 8.1592-11.697 13.285-16.504 12.467-11.692 26.818-16.166 41.896-17.629 28.5-2.7659 59.18 7.8185 84.725 18.963 7.8961 3.4449 15.326 7.619 22.875 11.757 9.875 5.411 19.472 11.57 28.938 17.667 3.696 2.381 8.7332 6.5185 13.281 6.8455 4.593 0.329 10.58-3.23 14.5-5.242 9.763-5.012 19.52-9.6195 29.75-13.608 37.107-14.469 75.797-26.516 115.88-18.5 18.918 3.784 39.508 12.115 50.875 28.25 3.8392-0.95058 12.562-5.3452 15.613-7.3588l139.86-131.99c-4.027-5.74-11.582-13.371-16.189-18.652-2.907-3.332-5.552-7.708-9.375-10.062-2.903-1.788-6.694-2.256-9.911-3.282-7.06-2.251-14.05-4.614-21-7.186-19.635-7.267-37.82-19.318-52.17-34.509-4.824-5.107-10.459-10.24-13.015-16.961-3.364-8.843-0.537-17.26 1.531-26 1.847-7.808 2.654-14.991 2.654-23-5.964 1.06-12.674 3.9542-18.319 6.0832-13.315 5.022-25.174 10.415-38.681 14.917-43.482 14.491-88.598 23.691-134 29.285-11.021 1.358-21.957 2.798-33 3.885-4.967 0.488-9.983 2.263-15 1.501-10.682-1.622-20.584-9.246-29-15.544-21.027-15.738-41.786-35.304-44-63.127-19.733 0.054-39.752 5.701-59 9.551-39.645 7.93-78.802 17.557-118 27.344-18.084 4.515-36.674 11.948-55.133 14.436z" fill="#87b9ef"/>
   <path d="m87 395 1 1-1-1m1 1 1 1z" fill="#040405"/>
   <path d="m313 417 1 1z" fill="#1b4773"/>
   <path d="m295 418 1 1z" fill="#aa6e88"/>
   <path d="m296 418 1 1-1-1m21 0 1 1-1-1m-24 1 1 1-1-1m26 0 1 1z" fill="#1b4773"/>
   <path d="m320 419 1 1z" fill="#2075ce"/>
   <path d="m322 420 1 1z" fill="#aa6e88"/>
   <path d="m289 421 1 1-1-1m34 0 1 1z" fill="#1b4773"/>
   <path d="m287 422 1 1-1-1m37 0 1 1z" fill="#1b4773"/>
   <path d="m284 424 1 1z" fill="#2075ce"/>
   <path d="m326 424 1 1z" fill="#1b4773"/>
   <path d="m283 425 1 1z" fill="#2075ce"/>
   <path d="m327 425 1 1z" fill="#aa6e88"/>
   <path d="m282 426 1 1z" fill="#2075ce"/>
   <path d="m281 427 1 1-1-1m47 0 1 1z" fill="#1b4773"/>
   <path d="m279 429 1 1z" fill="#aa6e88"/>
   <path d="m329 430 1 1z" fill="#1b4773"/>
   <path d="m277 432 1 1z" fill="#2075ce"/>
   <path d="m275 436 1 1z" fill="#1b4773"/>
   <path d="m274 438 1 1z" fill="#1b4773"/>
   <path d="m273 440 1 1z" fill="#2075ce"/>
   <path d="m183 464c-8.243-3.606-14.948-14.026-23.094-17.844-1.7678 63.797 32.211 126.97 80.113 168.86 35.649-20.307 54.98-56.772 54.98-97.02 0-10.802-0.153-24.924-4.854-34.896-2.406-5.104-6.071-10.352-9.51-14.869-3.499-4.594-6.668-8.881-10.986-12.683-5.15-4.533-13.036-8.615-19.525-10.527-19.41-5.718-40.799-8.558-57.657 4.785-4.432 3.508-7.652 8.715-9.468 14.19z" fill="#aa6e88"/>
   <path d="m302 417.44c-17.64 2.777-30.427 17.583-30.871 35.561-0.421 17.051 16.086 31.846 32.871 29.242 18.41-2.857 25.799-23.646 25.996-40.242 0.069-5.797 0.408-11.864-3.129-16.826-5.337-7.484-16.403-9.067-24.867-7.735z" fill="#040405"/>
   <path d="m272 443 1 1z" fill="#1b4773"/>
   <path d="m634 449.43c-16.185 2.324-28.194 12.468-32.1 28.572-5.033 20.751 12.242 39.275 33.1 36.714 10.733-1.318 23.433-6.312 29.532-15.753 6.515-10.087 9.144-30.019 1.074-39.921-7.196-8.83-20.841-11.158-31.606-9.612z" fill="#040405"/>
   <path d="m627 450 1 1z" fill="#2075ce"/>
   <path d="m651 450 1 1z" fill="#1b4773"/>
   <path d="m652 450 1 1z" fill="#2075ce"/>
   <path d="m624 451 1 1z" fill="#1b4773"/>
   <path d="m655 451 1 1z" fill="#2075ce"/>
   <path d="m622 452 1 1-1-1m35 0 1 1z" fill="#1b4773"/>
   <path d="m618 454 1 1-1-1m42 0 1 1z" fill="#1b4773"/>
   <path d="m616 455 1 1-1-1m46 0 1 1z" fill="#2075ce"/>
   <path d="m949 455 1 1z" fill="#040405"/>
   <path d="m615 456 1 1-1-1m48 0 1 1z" fill="#1b4773"/>
   <path d="m327 458 1 1z" fill="#2075ce"/>
   <path d="m665 458 1 1z" fill="#1b4773"/>
   <path d="m666 459 1 1z" fill="#2075ce"/>
   <path d="m326 461 1 1z" fill="#2075ce"/>
   <g fill="#1b4773">
    <path d="m667 461 1 1z"/>
    <path d="m325 463 1 1-1-1m283 0 1 1-1-1m60 0 1 1z"/>
    <path d="m273 464 1 1z"/>
   </g>
   <path d="m325 464 1 1z" fill="#aa6e88"/>
   <path d="m607 464 1 1z" fill="#2075ce"/>
   <path d="m274 466 1 1z" fill="#1b4773"/>
   <path d="m324 466 1 1z" fill="#2075ce"/>
   <path d="m606 466 1 1-1-1m63 0 1 1z" fill="#1b4773"/>
   <path d="m322 469 1 1z" fill="#1b4773"/>
   <path d="m942 469 1 1z" fill="#040405"/>
   <path d="m604 470 1 1z" fill="#1b4773"/>
   <path d="m321 471 1 1z" fill="#aa6e88"/>
   <path d="m941 471 1 1z" fill="#040405"/>
   <path d="m278 472 1 1z" fill="#ce454e"/>
   <path d="m320 472 1 1-1-1m283 0 1 1z" fill="#1b4773"/>
   <path d="m279 473 1 1-1-1m40 0 1 1-1-1m-39 1 1 1z" fill="#1b4773"/>
   <path d="m939 474 1 1z" fill="#040405"/>
   <path d="m281 475 1 1-1-1m321 0 1 1z" fill="#1b4773"/>
   <path d="m315 477 1 1z" fill="#1b4773"/>
   <path d="m937 477 1 1z" fill="#040405"/>
   <path d="m936 478 1 1z" fill="#040405"/>
   <path d="m287 479 1 1z" fill="#1b4773"/>
   <path d="m311 480 1 1z" fill="#aa6e88"/>
   <path d="m935 480 1 1z" fill="#040405"/>
   <path d="m291 481 1 1z" fill="#2075ce"/>
   <path d="m308 481 1 1z" fill="#1b4773"/>
   <g fill="#040405">
    <path d="m934 481 1 1z"/>
    <path d="m933 482 1 1z"/>
    <path d="m931 485 1 1z"/>
   </g>
   <path d="m376 486 1 1z" fill="#aa6e88"/>
   <path d="m377 486 1 1z" fill="#1b4773"/>
   <path d="m378 486.52c-3.539 0.756-7.036 2.201-9.999 4.282-23.686 16.638-6.608 52.022 10.003 67.026 29.82 26.937 78.483 31.022 116 21.019 23.7-6.32 46.459-19.261 57.752-41.845 3.068-6.137 5.534-13.003 5.14-20-0.714-12.695-11.668-22.894-23.892-24.699-10.706-1.581-22.384 1.945-29.072 10.738-3.814 5.016-4.927 11.308-9.971 15.432-13.212 10.802-35.88 12.269-51.957 9.268-8.278-1.545-17.923-4.252-23.657-10.832-4.27-4.902-3.782-11.453-6.876-16.907-6.63-11.688-20.724-16.205-33.467-13.482z" fill="#040405"/>
   <path d="m393 486 1 1z" fill="#1b4773"/>
   <path d="m930 486 1 1z" fill="#040405"/>
   <path d="m374 487 1 1-1-1m22 0 1 1z" fill="#1b4773"/>
   <path d="m397 487 1 1z" fill="#aa6e88"/>
   <path d="m929 487 1 1z" fill="#040405"/>
   <path d="m399 488 1 1z" fill="#2075ce"/>
   <path d="m928 488 1 1z" fill="#040405"/>
   <path d="m401 489 1 1z" fill="#aa6e88"/>
   <path d="m927 489 1 1z" fill="#040405"/>
   <path d="m368 490 1 1-1-1m34 0 1 1-1-1m266 0 1 1z" fill="#1b4773"/>
   <path d="m926 490 1 1z" fill="#040405"/>
   <path d="m668 491 1 1z" fill="#2075ce"/>
   <path d="m365 492 1 1z" fill="#aa6e88"/>
   <path d="m405 492 1 1z" fill="#2075ce"/>
   <path d="m519 492 1 1z" fill="#aa6e88"/>
   <path d="m364 493 1 1z" fill="#aa6e88"/>
   <path d="m406 493 1 1z" fill="#1b4773"/>
   <path d="m516 493 1 1z" fill="#aa6e88"/>
   <path d="m517 493 1 1z" fill="#1b4773"/>
   <path d="m538 493 1 1z" fill="#2075ce"/>
   <path d="m667 493 1 1z" fill="#1b4773"/>
   <path d="m923 493 1 1z" fill="#040405"/>
   <path d="m363 494 1 1z" fill="#2075ce"/>
   <path d="m407 494 1 1-1-1m107 0 1 1-1-1m26 0 1 1z" fill="#1b4773"/>
   <path d="m362 495 1 1z" fill="#aa6e88"/>
   <path d="m408 495 1 1-1-1m104 0 1 1z" fill="#2075ce"/>
   <path d="m542 495 1 1-1-1m60 0 1 1-1-1m64 0 1 1z" fill="#1b4773"/>
   <path d="m921 495 1 1z" fill="#040405"/>
   <path d="m544 496 1 1z" fill="#2075ce"/>
   <path d="m707 496.44c-14.459 2.254-28.892 6.784-39.999 16.735-17.771 15.921-23.791 46.434-18.92 68.826 3.474 15.968 14.708 30.909 25.208 43 2.77 3.189 7.937 11.229 12.726 10.713 4.123-0.444 8.559-4.267 11.985-6.39 7.654-4.744 15.269-9.494 23-14.123 32.108-19.225 64.79-39.741 93-64.486 6.173-5.415 15.115-12.079 18.57-19.714 1.515-3.348 2.1713-7.3136 2.6893-10.912 0.495-3.435 1.2587-7.7964-0.30133-11.088-3.296-6.951-9.144-8.7-15.958-10-11.803-2.253-25.976-1.811-37.17 2.757-4.803 1.96-13.767 8.021-18.83 7.401-4.873-0.597-10.219-5.755-15-7.542-12.49-4.67-27.724-7.246-41-5.177z" fill="#aa6e88"/>
   <path d="m920 496 1 1z" fill="#040405"/>
   <path d="m509 497 1 1-1-1m94 0 1 1-1-1m62 0 1 1z" fill="#1b4773"/>
   <path d="m919 497 1 1z" fill="#040405"/>
   <path d="m360 498 1 1-1-1m50 0 1 1-1-1m98 0 1 1z" fill="#1b4773"/>
   <path d="m918 498 1 1z" fill="#040405"/>
   <path d="m411 499 1 1z" fill="#aa6e88"/>
   <path d="m548 499 1 1z" fill="#2075ce"/>
   <path d="m604 499 1 1z" fill="#1b4773"/>
   <path d="m664 499 1 1z" fill="#2075ce"/>
   <path d="m359 500 1 1z" fill="#1b4773"/>
   <path d="m549 500 1 1z" fill="#aa6e88"/>
   <path d="m663 500 1 1z" fill="#1b4773"/>
   <path d="m916 500 1 1z" fill="#040405"/>
   <path d="m412 501 1 1-1-1m138 0 1 1z" fill="#2075ce"/>
   <path d="m605 501 1 1z" fill="#1b4773"/>
   <path d="m915 502 1 1z" fill="#040405"/>
   <path d="m413 503 1 1z" fill="#aa6e88"/>
   <path d="m503 503 1 1-1-1m157 0 1 1z" fill="#1b4773"/>
   <path d="m357 504 1 1z" fill="#2075ce"/>
   <path d="m413 504 1 1z" fill="#1b4773"/>
   <path d="m552 504 1 1z" fill="#1b4773"/>
   <path d="m607 504 1 1z" fill="#aa6e88"/>
   <path d="m659 504 1 1z" fill="#1b4773"/>
   <path d="m608 505 1 1z" fill="#2075ce"/>
   <path d="m658 505 1 1z" fill="#1b4773"/>
   <path d="m609 506 1 1z" fill="#1b4773"/>
   <path d="m657 506 1 1z" fill="#2075ce"/>
   <path d="m554 507 1 1z" fill="#2075ce"/>
   <path d="m610 507 1 1-1-1m45 0 1 1z" fill="#1b4773"/>
   <path d="m500 508 1 1-1-1m111 0 1 1z" fill="#2075ce"/>
   <path d="m651 509 1 1z" fill="#1b4773"/>
   <path d="m499 510 1 1z" fill="#aa6e88"/>
   <path d="m555 510 1 1-1-1m59 0 1 1-1-1m35 0 1 1-1-1m-150 1 1 1z" fill="#1b4773"/>
   <path d="m615 511 1 1z" fill="#aa6e88"/>
   <path d="m647 511 1 1z" fill="#1b4773"/>
   <path d="m617 512 1 1z" fill="#1b4773"/>
   <path d="m645 512 1 1z" fill="#2075ce"/>
   <path d="m415 513 1 1z" fill="#1b4773"/>
   <path d="m498 513 1 1z" fill="#2075ce"/>
   <path d="m619 513 1 1z" fill="#1b4773"/>
   <path d="m497 515 1 1z" fill="#1b4773"/>
   <path d="m496 516 1 1z" fill="#2075ce"/>
   <path d="m418 517 1 1z" fill="#2075ce"/>
   <path d="m495 517 1 1z" fill="#1b4773"/>
   <path d="m419 518 1 1-1-1m75 0 1 1-1-1m-74 1 1 1z" fill="#1b4773"/>
   <path d="m422 520 1 1z" fill="#2075ce"/>
   <path d="m491 520 1 1-1-1m-68 1 1 1z" fill="#1b4773"/>
   <path d="m430 524 1 1z" fill="#2075ce"/>
   <path d="m482 524 1 1-1-1m-50 1 1 1z" fill="#1b4773"/>
   <path d="m433 525 1 1z" fill="#2075ce"/>
   <path d="m479 525 1 1z" fill="#1b4773"/>
   <path d="m556 525 1 1z" fill="#2075ce"/>
   <path d="m358 526 1 1z" fill="#1b4773"/>
   <path d="m359 529 1 1z" fill="#1b4773"/>
   <path d="m554 531 1 1z" fill="#2075ce"/>
   <g fill="#1b4773">
    <path d="m360 532 1 1z"/>
    <path d="m553 533 1 1z"/>
    <path d="m361 534 1 1z"/>
   </g>
   <path d="m361 535 1 1z" fill="#2075ce"/>
   <path d="m552 535 1 1z" fill="#1b4773"/>
   <path d="m362 537 1 1z" fill="#2075ce"/>
   <path d="m551 537 1 1z" fill="#1b4773"/>
   <path d="m363 538 1 1z" fill="#1b4773"/>
   <path d="m551 538 1 1z" fill="#aa6e88"/>
   <path d="m363 539 1 1z" fill="#2075ce"/>
   <g fill="#1b4773">
    <path d="m550 539 1 1z"/>
    <path d="m364 540 1 1z"/>
    <path d="m549 541 1 1-1-1m-184 1 1 1z"/>
   </g>
   <path d="m548 543 1 1z" fill="#2075ce"/>
   <path d="m547 544 1 1-1-1m-180 1 1 1z" fill="#1b4773"/>
   <path d="m545 547 1 1z" fill="#2075ce"/>
   <path d="m369 548 1 1z" fill="#2075ce"/>
   <path d="m544 548 1 1z" fill="#1b4773"/>
   <path d="m370 549 1 1-1-1m173 0 1 1-1-1m-172 1 1 1z" fill="#1b4773"/>
   <path d="m539 554 1 1z" fill="#2075ce"/>
   <path d="m538 555 1 1z" fill="#aa6e88"/>
   <path d="m533 559 1 1z" fill="#1b4773"/>
   <path d="m381 560 1 1-1-1m151 0 1 1z" fill="#1b4773"/>
   <path d="m382 561 1 1z" fill="#2075ce"/>
   <path d="m531 561 1 1z" fill="#aa6e88"/>
   <path d="m529 562 1 1z" fill="#1b4773"/>
   <path d="m385 563 1 1z" fill="#1b4773"/>
   <path d="m528 563 1 1z" fill="#2075ce"/>
   <path d="m386 564 1 1z" fill="#2075ce"/>
   <path d="m388 565 1 1z" fill="#1b4773"/>
   <path d="m525 565 1 1-1-1m-136 1 1 1z" fill="#2075ce"/>
   <path d="m523 566 1 1z" fill="#1b4773"/>
   <path d="m391 567 1 1z" fill="#1b4773"/>
   <path d="m392 568 1 1z" fill="#aa6e88"/>
   <path d="m520 568 1 1z" fill="#2075ce"/>
   <path d="m394 569 1 1z" fill="#2075ce"/>
   <path d="m518 569 1 1z" fill="#1b4773"/>
   <path d="m396 570 1 1z" fill="#2075ce"/>
   <path d="m516 570 1 1z" fill="#1b4773"/>
   <path d="m398 571 1 1z" fill="#2075ce"/>
   <path d="m514 571 1 1z" fill="#1b4773"/>
   <path d="m895 571 1 1-1-1m-780 1 1 1z" fill="#040405"/>
   <path d="m400 572 1 1-1-1m112 0 1 1z" fill="#1b4773"/>
   <path d="m403 573 1 1-1-1m106 0 1 1z" fill="#1b4773"/>
   <path d="m510 573 1 1z" fill="#aa6e88"/>
   <path d="m116 574 1 1z" fill="#040405"/>
   <path d="m405 574 1 1-1-1m102 0 1 1z" fill="#1b4773"/>
   <path d="m893 574 1 1z" fill="#040405"/>
   <path d="m407 575 1 1z" fill="#2075ce"/>
   <path d="m504 575 1 1z" fill="#1b4773"/>
   <path d="m505 575 1 1z" fill="#2075ce"/>
   <path d="m892 575 1 1-1-1m-775 1 1 1z" fill="#040405"/>
   <path d="m410 576 1 1z" fill="#2075ce"/>
   <path d="m501 576 1 1z" fill="#1b4773"/>
   <path d="m502 576 1 1z" fill="#2075ce"/>
   <path d="m413 577 1 1z" fill="#2075ce"/>
   <path d="m498 577 1 1z" fill="#1b4773"/>
   <path d="m416 578 1 1z" fill="#2075ce"/>
   <path d="m417 578 1 1-1-1m78 0 1 1z" fill="#1b4773"/>
   <path d="m496 578 1 1z" fill="#2075ce"/>
   <path d="m419 579 1 1z" fill="#aa6e88"/>
   <path d="m420 579 1 1-1-1m71 0 1 1z" fill="#1b4773"/>
   <path d="m492 579 1 1z" fill="#2075ce"/>
   <g fill="#040405">
    <path d="m889 579 1 1z"/>
    <path d="m888 580 1 1-1-1m-768 1 1 1z"/>
    <path d="m887 581 1 1z"/>
    <path d="m886 582 1 1-1-1m-765 1 1 1z"/>
    <path d="m126 591 1 1z"/>
   </g>
   <path d="m134.8 340.45c13.238 17.833 32.969 26.685 32.972 50.912 23.474-1.918 48.122-12.407 71-18.127 53.035-13.258 106.69-26.974 161-33.873 0.574 27.791 21.966 48.834 43 64.112 7.663 5.566 16.511 12.611 26 14.509 17.707 3.542 40.339-2.657 58-5.193 41.367-5.939 81.969-13.803 122-26.145 14.592-4.499 28.774-9.961 43-15.472 4.673-1.81 12.852-7.128 17.851-6.573 4.846 0.538 2.118 10.77 1.48 13.762-3.127 14.655-9.536 28.494 0.572 42 14.433 19.286 35.952 33.755 58.097 42.691 10.238 4.132 23.653 5.459 32.961 11.233 4.564 2.831 7.68 8.121 11.205 12.076 6.682 7.496 16.985 16.958 21.983 25.607l2.1634-11.482c1.581-19.997 11.214-34.466 24.562-49.062-8.821-9.655-17.531-20.884-29.875-26.19-19.589-8.422-48.522-9.824-62.643-27.977-5.565-7.154 2.027-22.471 1.55-30.896-1.323-23.351-11.477-36.198-28.907-50.465-6.042-4.945-10.968-10.55-19-12.067-22.699-4.29-46.153 13.973-67 21.016-39.952 13.497-79.371 23.948-121 30.93-14.766 2.476-35.165 8.707-50 6.358-4.586-0.727-8.483-4.162-11.985-6.983-6.706-5.401-13.336-11.137-15.417-19.789-4.866-20.233 2.319-46.105-24.598-53.076-3.89-1.008-8.004-1.108-12-0.835-64.015 4.38-130.21 19.606-192 36.656-21.273 5.87-42.567 11.744-64 17.128-9.364 2.353-21.316 7.4524-30.972 5.2154z" fill="#2167ae"/>
   <g fill="#040405">
    <path d="m127 593 1 1-1-1m748 0 1 1-1-1m-747 1 1 1z"/>
    <path d="m874 594 1 1z"/>
    <path d="m255.97 733.8c6.03-1.584 10.936-6.1726 16.558-8.9456 9.611-4.74 19.183-8.9309 29.47-11.85-1.465-11.533-4-22.287-4-34 0-6.66-0.367-13.545 1.623-20 4.874-15.808 19.536-19.474 34.377-16.331 25.806 5.464 49.305 17.74 72 30.758 6.819 3.912 13.46 8.215 20 12.573 9.263 6.172 20.433 17.326 32 17.957 15.649 0.853 28.648-10.213 41.996-16.827 29.716-14.723 63.201-30.132 97.004-30.13 20.706 1e-3 40.466 9.225 45.664 31 2.032 8.516 3.33 17.242 3.336 26 10.96 0.226 22.733 3.563 33 7.286 5.367 1.946 10.332 4.738 16 5.714 0.781-18.201 0.968-34.143-3.63-52-2.094-8.134-5.643-15.654-9.682-23-25.946-47.194-88.495-47.053-133.69-35.116-8.374 2.212-16.92 4.809-25 7.927-14.322 5.526-28.175 11.766-42 18.411-4.895 2.353-12.422 8.25-18 7.736-5.706-0.526-12.267-6.909-17-9.905-12.324-7.801-25.043-15.107-38-21.795-6.832-3.526-13.883-6.748-21-9.655-40.382-16.488-97.652-27.691-126.14 15.397-4.007 6.061-8.0027 11.632-9.8157 18.735-2.606 10.214-4.3988 20.014-4.0453 30.265 0.70621 20.477 2.2246 42.489 8.9723 59.796z"/>
    <path d="m873 595 1 1-1-1m-744 1 1 1z"/>
    <path d="m872 596 1 1-1-1m-742 1 1 1z"/>
   </g>
   <path d="m298 597 1 1z" fill="#2075ce"/>
   <path d="m349 597 1 1z" fill="#1b4773"/>
   <path d="m871 597 1 1z" fill="#040405"/>
   <path d="m295 598 1 1z" fill="#2075ce"/>
   <path d="m870 598 1 1-1-1m-739 1 1 1z" fill="#040405"/>
   <path d="m292 599 1 1z" fill="#2075ce"/>
   <path d="m357 599 1 1z" fill="#1b4773"/>
   <path d="m358 599 1 1z" fill="#2075ce"/>
   <path d="m290 600 1 1-1-1m71 0 1 1z" fill="#1b4773"/>
   <path d="m868 600 1 1z" fill="#040405"/>
   <path d="m288 601 1 1-1-1m76 0 1 1z" fill="#1b4773"/>
   <path d="m365 601 1 1z" fill="#2075ce"/>
   <path d="m867 601 1 1-1-1m-734 1 1 1z" fill="#040405"/>
   <path d="m286 602 1 1z" fill="#1b4773"/>
   <path d="m368 602 1 1z" fill="#2075ce"/>
   <path d="m865 602 1 1-1-1m-731 1 1 1z" fill="#040405"/>
   <path d="m370 603 1 1z" fill="#1b4773"/>
   <path d="m371 603 1 1z" fill="#2075ce"/>
   <path d="m864 603 1 1z" fill="#040405"/>
   <path d="m282 604 1 1z" fill="#1b4773"/>
   <path d="m374 604 1 1z" fill="#2075ce"/>
   <path d="m863 604 1 1-1-1m-728 1 1 1z" fill="#040405"/>
   <path d="m280 605 1 1z" fill="#2075ce"/>
   <path d="m376 605 1 1z" fill="#1b4773"/>
   <path d="m862 605 1 1-1-1m-726 1 1 1z" fill="#040405"/>
   <path d="m279 606 1 1z" fill="#1b4773"/>
   <path d="m379 606 1 1z" fill="#2075ce"/>
   <path d="m861 606 1 1z" fill="#040405"/>
   <path d="m277 607 1 1z" fill="#2075ce"/>
   <path d="m381 607 1 1z" fill="#1b4773"/>
   <path d="m382 607 1 1z" fill="#aa6e88"/>
   <path d="m860 607 1 1-1-1m-723 1 1 1z" fill="#040405"/>
   <path d="m384 608 1 1z" fill="#1b4773"/>
   <path d="m858 608 1 1-1-1m-720 1 1 1z" fill="#040405"/>
   <path d="m386 609 1 1z" fill="#1b4773"/>
   <path d="m856 610 1 1z" fill="#040405"/>
   <path d="m272 611 1 1-1-1m119 0 1 1z" fill="#2075ce"/>
   <path d="m855 611 1 1-1-1m-715 1 1 1z" fill="#040405"/>
   <path d="m853 612 1 1-1-1m-712 1 1 1z" fill="#040405"/>
   <path d="m270 613 1 1-1-1m125 0 1 1z" fill="#1b4773"/>
   <path d="m561 613 1 1z" fill="#2075ce"/>
   <path d="m269 614 1 1z" fill="#1b4773"/>
   <path d="m398 614 1 1z" fill="#aa6e88"/>
   <path d="m632 614 1 1z" fill="#1b4773"/>
   <path d="m633 614 1 1z" fill="#aa6e88"/>
   <path d="m851 614 1 1z" fill="#040405"/>
   <path d="m268 615 1 1z" fill="#1b4773"/>
   <path d="m400 615 1 1-1-1m153 0 1 1z" fill="#2075ce"/>
   <path d="m635 615 1 1z" fill="#1b4773"/>
   <path d="m267 616 1 1z" fill="#1b4773"/>
   <path d="m848 616 1 1-1-1m-704 1 1 1z" fill="#040405"/>
   <path d="m266 617 1 1z" fill="#1b4773"/>
   <path d="m404 617 1 1-1-1m141 0 1 1z" fill="#2075ce"/>
   <path d="m640 617 1 1z" fill="#1b4773"/>
   <path d="m641 617 1 1z" fill="#aa6e88"/>
   <path d="m847 617 1 1z" fill="#040405"/>
   <path d="m265 618 1 1-1-1m141 0 1 1z" fill="#2075ce"/>
   <path d="m542 618 1 1z" fill="#1b4773"/>
   <path d="m643 618 1 1z" fill="#2075ce"/>
   <path d="m846 618 1 1-1-1m-701 1 1 1z" fill="#040405"/>
   <path d="m408 619 1 1-1-1m130 0 1 1z" fill="#2075ce"/>
   <path d="m539 619 1 1-1-1m106 0 1 1z" fill="#1b4773"/>
   <path d="m844 619 1 1-1-1m-698 1 1 1z" fill="#040405"/>
   <path d="m410 620 1 1-1-1m125 0 1 1z" fill="#2075ce"/>
   <path d="m647 620 1 1z" fill="#1b4773"/>
   <path d="m843 620 1 1-1-1m-696 1 1 1z" fill="#040405"/>
   <path d="m263 621 1 1z" fill="#1b4773"/>
   <path d="m532 621 1 1z" fill="#2075ce"/>
   <path d="m533 621 1 1z" fill="#1b4773"/>
   <path d="m649 621 1 1z" fill="#2075ce"/>
   <path d="m262 622 1 1z" fill="#2075ce"/>
   <path d="m413 622 1 1z" fill="#1b4773"/>
   <path d="m414 622 1 1z" fill="#aa6e88"/>
   <path d="m529 622 1 1-1-1m122 0 1 1z" fill="#2075ce"/>
   <path d="m840 622 1 1z" fill="#040405"/>
   <path d="m415 623 1 1z" fill="#1b4773"/>
   <path d="m526 623 1 1z" fill="#2075ce"/>
   <path d="m652 623 1 1z" fill="#1b4773"/>
   <path d="m839 623 1 1-1-1m-690 1 1 1z" fill="#040405"/>
   <path d="m250 624 1 1z" fill="#2075ce"/>
   <path d="m417 624 1 1z" fill="#1b4773"/>
   <path d="m523 624 1 1z" fill="#2075ce"/>
   <path d="m654 624 1 1z" fill="#1b4773"/>
   <path d="m838 624 1 1-1-1m-688 1 1 1z" fill="#040405"/>
   <path d="m251 625 1 1z" fill="#2075ce"/>
   <path d="m260 625 1 1-1-1m159 0 1 1-1-1m102 0 1 1z" fill="#1b4773"/>
   <path d="m836 625 1 1-1-1m-685 1 1 1z" fill="#040405"/>
   <path d="m252 626 1 1z" fill="#2075ce"/>
   <path d="m421 626 1 1z" fill="#1b4773"/>
   <path d="m518 626 1 1z" fill="#2075ce"/>
   <path d="m657 626 1 1z" fill="#1b4773"/>
   <path d="m835 626 1 1-1-1m-683 1 1 1z" fill="#040405"/>
   <path d="m253 627 1 1z" fill="#2075ce"/>
   <path d="m259 627 1 1z" fill="#1b4773"/>
   <path d="m423 627 1 1z" fill="#2075ce"/>
   <path d="m516 627 1 1z" fill="#1b4773"/>
   <path d="m258 628 1 1z" fill="#aa6e88"/>
   <path d="m513 628 1 1z" fill="#1b4773"/>
   <path d="m660 628 1 1z" fill="#2075ce"/>
   <path d="m832 628 1 1-1-1m-679 1 1 1z" fill="#040405"/>
   <path d="m426 629 1 1-1-1m85 0 1 1-1-1m150 0 1 1z" fill="#1b4773"/>
   <path d="m831 629 1 1-1-1m-677 1 1 1z" fill="#040405"/>
   <path d="m428 630 1 1-1-1m80 0 1 1z" fill="#2075ce"/>
   <path d="m662 630 1 1z" fill="#1b4773"/>
   <path d="m829 630 1 1-1-1m-674 1 1 1z" fill="#040405"/>
   <path d="m430 631 1 1-1-1m75 0 1 1z" fill="#aa6e88"/>
   <path d="m506 631 1 1z" fill="#1b4773"/>
   <path d="m828 631 1 1-1-1m-672 1 1 1z" fill="#040405"/>
   <path d="m431 632 1 1z" fill="#1b4773"/>
   <path d="m503 632 1 1-1-1m162 0 1 1z" fill="#aa6e88"/>
   <path d="m827 632 1 1z" fill="#040405"/>
   <path d="m433 633 1 1-1-1m68 0 1 1z" fill="#1b4773"/>
   <path d="m666 633 1 1z" fill="#2075ce"/>
   <path d="m825 633 1 1z" fill="#040405"/>
   <path d="m435 634 1 1z" fill="#2075ce"/>
   <path d="m499 634 1 1z" fill="#1b4773"/>
   <path d="m667 634 1 1z" fill="#2075ce"/>
   <path d="m824 634 1 1-1-1m-666 1 1 1z" fill="#040405"/>
   <path d="m436 635 1 1z" fill="#1b4773"/>
   <path d="m497 635 1 1z" fill="#1b4773"/>
   <path d="m668 635 1 1z" fill="#2075ce"/>
   <path d="m822 635 1 1-1-1m-663 1 1 1z" fill="#040405"/>
   <path d="m438 636 1 1z" fill="#1b4773"/>
   <path d="m494 636 1 1-1-1m175 0 1 1z" fill="#2075ce"/>
   <path d="m821 636 1 1-1-1m-661 1 1 1z" fill="#040405"/>
   <path d="m440 637 1 1z" fill="#2075ce"/>
   <path d="m492 637 1 1z" fill="#1b4773"/>
   <path d="m670 637 1 1z" fill="#2075ce"/>
   <path d="m819 637 1 1-1-1m-658 1 1 1z" fill="#040405"/>
   <path d="m441 638 1 1-1-1m49 0 1 1z" fill="#1b4773"/>
   <path d="m671 638 1 1z" fill="#aa6e88"/>
   <path d="m818 638 1 1-1-1m-656 1 1 1z" fill="#040405"/>
   <path d="m443 639 1 1-1-1m45 0 1 1z" fill="#1b4773"/>
   <path d="m672 639 1 1z" fill="#2075ce"/>
   <path d="m486 640 1 1z" fill="#1b4773"/>
   <path d="m678 640 1 1z" fill="#2075ce"/>
   <path d="m815 640 1 1z" fill="#040405"/>
   <path d="m446 641 1 1-1-1m38 0 1 1z" fill="#1b4773"/>
   <path d="m302 712c4.8842-0.74152 25.611 64.831 78.752 142.21 2.6902 0.50665 1.697 5.021 3.307 6.787 4.735 5.197 9.94 10.055 14.941 14.996 15.674 15.487 34.255 28.515 54 38.248 7.158 3.528 15.897 8.195 24 8.648 8.88 0.496 18.005-4.857 26-8.093 25.498-10.321 49.886-28.092 68.961-47.803 5.573-5.759 10.914-11.932 16.053-18.085 1.724-2.065 15.057 3.2207 41.645-66.516s14.997-86.126 13.222-94.395c-4.846-22.582-24.827-31-45.881-31-34.381 0-66.444 15.642-97 29.668-13.118 6.022-26.708 18.606-42 17.227-11.666-1.052-23.544-12.955-33-19.228-25.691-17.043-53.238-31.818-83-40.091-10.898-3.03-27.832-6.273-36.529 3.043-8.536 9.143-7.471 22.877-7.471 34.381 0 10.2 1.7377 20.057 4 30z" fill="#ce454e"/>
   <path d="m448 642 1 1z" fill="#2075ce"/>
   <path d="m482 642 1 1z" fill="#1b4773"/>
   <path d="m812 642 1 1-1-1m-647 1 1 1z" fill="#040405"/>
   <path d="m449 643 1 1-1-1m31 0 1 1z" fill="#1b4773"/>
   <path d="m451 644 1 1z" fill="#2075ce"/>
   <path d="m478 644 1 1z" fill="#1b4773"/>
   <path d="m809 644 1 1-1-1m-642 1 1 1z" fill="#040405"/>
   <path d="m452 645 1 1z" fill="#1b4773"/>
   <path d="m808 645 1 1-1-1m-640 1 1 1z" fill="#040405"/>
   <path d="m454 646 1 1z" fill="#2075ce"/>
   <path d="m474 646 1 1z" fill="#1b4773"/>
   <path d="m806 646 1 1-1-1m-637 1 1 1z" fill="#040405"/>
   <path d="m472 647 1 1z" fill="#1b4773"/>
   <path d="m457 648 1 1z" fill="#2075ce"/>
   <path d="m470 648 1 1z" fill="#1b4773"/>
   <path d="m803 648 1 1-1-1m-632 1 1 1z" fill="#040405"/>
   <path d="m458 649 1 1-1-1m10 0 1 1z" fill="#1b4773"/>
   <path d="m303 650 1 1-1-1m157 0 1 1-1-1m6 0 1 1z" fill="#1b4773"/>
   <path d="m173 651 1 1z" fill="#040405"/>
   <path d="m464 651 1 1z" fill="#2075ce"/>
   <path d="m299.33 658.67c-0.055 0.055-0.111 1.111 0.334 0.666 0.055-0.055 0.111-1.111-0.334-0.666z" fill="#1b4773"/>
   <path d="m807 660 1 1z" fill="#040405"/>
   <g fill="#1b4773">
    <path d="m564.67 661.33c-0.445 0.445 0.611 0.389 0.666 0.334 0.445-0.445-0.611-0.389-0.666-0.334z"/>
    <path d="m544.67 667.33c-0.445 0.445 0.611 0.389 0.666 0.334 0.445-0.445-0.611-0.389-0.666-0.334z"/>
    <path d="m506.67 683.33c-0.445 0.445 0.611 0.389 0.666 0.334 0.445-0.445-0.611-0.389-0.666-0.334z"/>
   </g>
   <path d="m695 726.96c-9.529-1.641-17.223-8.065-26.688-10.397-28.668-7.064-65.934-8.1852-92.268 7.6808-5.132 3.092-12.838 8.6107-16.734 13.151-7.907 9.214-10.816 18.659-10.612 30.168 0.62845 35.428 31.646 62.271 58.215 81.969 8.645 6.41 16.821 14.578 27.089 18.47-4.605 10.877-15.745 20.742-24 29-22.629 22.637-47.482 41.458-76 56 5.846 2.282 15.743-0.164 22-0.834 17.282-1.85 34.673-3.688 52-5.08 44.991-3.617 90.327-9.949 135-16.386 24.519-3.533 49.986-8.75 74.698-10.7-3.8621-6.1331-5.9515-10.215-7.1665-16.03-1.02-4.877-0.12876-11.032-0.83176-15.97-1.6484-8.9794-2.1902-17.949-3.4676-26.948-1.52-10.708-3.7751-21.44-5.9114-32.052-8.478-36.994-26.29-71.248-43.027-105-3.383-6.821-7.145-13.467-11.044-20-1.416-2.372-2.758-6.311-5.589-7.342-3.174-1.155-7.747 1.76-10.661 2.868-8.162 3.105-16.237 7.186-24 11.179-2.868 1.475-7.4475 3.614-10.645 5.5188-0.20163 4.5748-0.35651 7.4751-0.35651 10.735z" fill="#2075ce"/>
   <path d="m308.22 710.34-11.756 3.1889c-15.072 4.0509-28.421 14.008-35.466 17.526-5.522 3.337-11.891 5.451-16.314 10.42-10.538 11.831-6.5471 30.971 8.314 36.53-1.723 5.901-5.121 10.477-7.46 16.039-6.918 16.455-13.815 33.309-17.076 50.961-1.5474 8.3767-3.167 16.722-3.6937 25.042-0.43964 6.9447 0.0705 13.848 0.24473 20.958 0.22909 9.348 1.301 19.304 0.01 28-1.336 5.605-6.5514 9.4361-8.8784 14.612 10.242 0.837 21.757 3.9239 31.853 5.9389 13.128 2.62 26.725 4.378 40 6.167 47.117 6.347 100.2 11.532 147.75 11.532-3.977-3.563-13.767-7.04-18.375-9.772-8.608-5.103-17.612-11.113-25.625-17.123-21.656-16.242-36.988-33.778-55.25-53.605 11.198-3.733 18.647-8.047 28.92-13.502 2.846-1.511 6.6157-4.2083 9.4387-5.8593 3.606-2.11 5.7723-3.9087 9.0253-6.3787 9.228-7.008 16.668-12.638 23.635-21.996 7.933-10.655 15.041-22.234 16.435-35.89 0.919-8.994-0.992-19.757-3.464-28.374-2.213-7.714-5.598-13.142-10.522-19.55-5.549-7.22-12.598-14.849-20.343-19.681-6.2312-4.0172-11.669-7.2492-19.234-9.4831-3.649-1.26-14.64-3.5089-18.231-4.8079-7.464-2.7-12.582-2.7189-20.468-2.9109-12.708-0.5043-16.589 0.42135-23.471 2.0183z" fill="#2075ce"/>
   <g fill="#040405">
    <path d="m202 716 1 1z"/>
    <path d="m199 721 1 1z"/>
    <path d="m198 723 1 1z"/>
   </g>
   <g fill="#1b4773">
    <path d="m590 845 1 1z"/>
    <path d="m628 876 1 1-1-1m-295 1 1 1-1-1m292 3 1 1-1-1m-1 1 1 1-1-1m-287 1 1 1-1-1m69 0 1 1-1-1m217 0 1 1-1-1m-285 1 1 1-1-1m1 1 1 1-1-1m1 1 1 1z"/>
    <path d="m618 888 1 1-1-1m-1 1 1 1-1-1m-1 1 1 1-1-1m-2 2 1 1-1-1m-267 1 1 1-1-1m266 0 1 1-1-1m-265 1 1 1-1-1m264 0 1 1-1-1m-263 1 1 1-1-1m262 0 1 1-1-1m-261 1 1 1-1-1m260 0 1 1-1-1m-259 1 1 1-1-1m258 0 1 1z"/>
    <path d="m358 904 1 1-1-1m244 0 1 1-1-1m-243 1 1 1-1-1m242 0 1 1z"/>
    <path d="m360 906 1 1-1-1m240 0 1 1-1-1m-239 1 1 1-1-1m238 0 1 1-1-1m-1 1 1 1z"/>
    <path d="m597 909 1 1z"/>
   </g>
   <path d="m883 912 1 1z" fill="#040405"/>
   <path d="m503 914 1 1-1-1m88 0 1 1z" fill="#1b4773"/>
   <path d="m882 914 1 1z" fill="#040405"/>
   <path d="m370 915 1 1-1-1m220 0 1 1-1-1m-219 1 1 1-1-1m218 0 1 1z" fill="#1b4773"/>
   <path d="m881 916 1 1z" fill="#040405"/>
   <path d="m372 917 1 1-1-1m1 1 1 1z" fill="#1b4773"/>
   <path d="m374 919 1 1z" fill="#1b4773"/>
   <path d="m879 919 1 1z" fill="#040405"/>
   <path d="m824 927 1 1-1-1m47 0 1 1-1-1m-715 1 1 1z" fill="#040405"/>
   <path d="m388 930 1 1-1-1m183 0 1 1z" fill="#1b4773"/>
   <path d="m335.38 876.17c5.535 11.886 18.625 22.119 28 31.039 24.433 23.247 52.36 42.745 84 54.769 10.053 3.82 23.036 9.669 34 8.979 11.223-0.706 23.625-5.917 34-9.99 27.174-10.669 52.845-25.712 75-44.797 14.828-12.773 37.76-30.28 45-49-9.329-5.194-18.575-11.453-27-18.014-2.972-2.314-7.828-8.012-11.911-7.819-3.437 0.163-6.55 5.331-8.579 7.663-6.534 7.511-13.108 15.016-20.34 21.87-18.38 17.418-39.161 31.846-62.17 42.463-7.199 3.321-16.982 8.813-25 9.16-8.358 0.361-17.847-5.398-25-9.065-18.416-9.442-35.983-20.945-51-35.297-11.411-8.1993-23.375-27.361-22.409-25.837-4.312-1.287-12.213 7.625-15.591 9.811-9.527 6.165-20.96 8.953-31 14.065z" fill="#040404"/>
   <path d="m356.8 760.6c6.1089 1.0318 16.539 12.276 17 14 9.7763 36.604-41.59 50.553-70 62.036-14.378 5.812-36.959 11.561-29.802 32.964 8.427 25.204 36.871 15.822 55.226 9 38.019-14.13 88.128-39.961 94.286-85.004 5.028-36.774-21.072-69.202-53.585-80.566-34.465-12.047-80.229-3.552-110.46 15.881-7.432 4.777-16.532 10.876-19.905 19.564-5.746 14.798 6.736 32.315 22.245 32.321 16.691 6e-3 29.514-15.296 45-20.436 18.154-6.026 32.095-2.784 50 0.24z" fill="#2167ae"/>
   <path d="m597.32 775.64c-1.318-5.021-0.477-7.446 1.067-10.451 7.615-13.182 27.241-7.508 36.933-7.155 28.061 1.021 64.033 39.908 87.427 11.556 2.609-3.161 2.565-6.673 2.573-10.575 0.016-8.401-1.2836-14.535-8.039-20.402-8.0583-6.9984-7.3322-6.1514-22.711-12.723-9.307-3.831-19.173-7.217-28.25-9.59-20.217-5.286-44.286-7.807-65-3.91-42.954 8.081-67.909 47.563-44.076 87.625 20.466 34.404 58.144 58.105 92.115 77.223 12.323 6.935 24.341 15.91 37.961 20.243 22.597 7.189 44.145-16.165 29.027-36.948-6.145-8.447-19.292-11.481-28.027-16.115-20.801-11.037-41.519-23.71-59.711-38.7-7.687-6.334-15.973-11.749-22.815-18.914-3.053-3.197-6.444-7.495-8.474-11.164z" fill="#2167ae"/>
  </g>
  <g transform="matrix(3.7795 0 0 3.7795 253.7 250.63)" stroke-width=".26458">
   <path class="text" d="m69.864-0.4983 0.3048 2.1463h0.0762s-0.254-2.0066 1.6002-2.0066c0.3683 0 0.4826 0.2159 0.4826 0.7112v7.0993c0 0.7239-0.4826 0.9271-0.4826 0.9271v0.0762h2.4765v-0.0762s-0.4826-0.2032-0.4826-0.9271v-7.0739c0-0.508 0.1524-0.7366 0.4826-0.7366 1.9685 0 1.6002 2.0193 1.6002 2.0193h0.0762l0.3048-2.159zm13.094 0.0762v-0.0762h-2.4765v0.0762s0.4826 0.2032 0.4826 0.9271v3.9243c0 0.1143-0.0889 0.2032-0.1905 0.2032h-2.0447c-0.1143 0-0.2032-0.0889-0.2032-0.2032v-3.9243c0-0.7239 0.4826-0.9271 0.4826-0.9271v-0.0762h-2.4765v0.0762s0.4826 0.2032 0.4826 0.9271v6.9469c0 0.7239-0.4826 0.9271-0.4826 0.9271v0.0762h2.4765v-0.0762s-0.4826-0.2032-0.4826-0.9271v-2.4638c0-0.1016 0.0889-0.1905 0.2032-0.1905h2.0447c0.1016 0 0.1905 0.0889 0.1905 0.1905v2.4638c0 0.7239-0.4826 0.9271-0.4826 0.9271v0.0762h2.4765v-0.0762s-0.4826-0.2032-0.4826-0.9271v-6.9469c0-0.7239 0.4826-0.9271 0.4826-0.9271zm5.8547 6.0579c0.1397 0 0.2413-0.1016 0.2413-0.2413 0-0.127-0.1016-0.2413-0.2413-0.2413-0.127 0-0.2286 0.1143-0.2286 0.2413 0 1.778 0.1905 2.9337-1.2065 2.9337h-1.016c-0.508 0-0.9144-0.4191-0.9144-0.9271v-2.921c0-0.1524 0.127-0.2794 0.2667-0.2794h0.4826c1.0414 0 1.3208 0.8509 1.3208 1.8923v0.127h0.0762v-4.1656h-0.0762v0.127c0 1.0414-0.2794 1.8923-1.3208 1.8923h-0.4826c-0.1397 0-0.2667-0.127-0.2667-0.2794v-3.2385c0-0.508 0.4064-0.9144 0.9144-0.9144h0.5715c1.9558 0 1.5875 2.0193 1.5875 2.0193h0.0889l0.3048-2.159h-5.461v0.0762s0.4826 0.2032 0.4826 0.9271v6.9469c0 0.7239-0.4826 0.9271-0.4826 0.9271v0.0762h5.7658s-0.8382-2.8194-0.4064-2.8194z"/>
   <path class="accent" d="m99.557 3.9817c0-3.3782-1.397-4.4831-3.1369-4.4831h-3.2893v0.0762s0.4826 0.2032 0.4826 0.9271v6.9469c0 0.7239-0.4826 0.9271-0.4826 0.9271v0.0762h3.4544c1.5875 0 2.9718-1.27 2.9718-4.4704zm-1.6002 2.2987c0 1.1303-0.3683 2.0447-1.4986 2.0447-0.7366 0-1.3335-0.5969-1.3335-1.3335v-6.0198c0-0.7366 0.5969-1.3335 1.3335-1.3335 1.1303 0 1.4986 0.9144 1.4986 2.032zm8.2804-2.7305v-0.0762h-2.4765v0.0762s0.4826 0.2032 0.4826 0.9271l-0.0127 2.6162c0 0.7239-0.4445 1.3208-0.889 1.3208h-0.4318c-0.4826 0-0.8763-0.381-0.8763-0.8636v-6.6421c0-0.7747 0.635-1.4097 1.4097-1.4097h0.0762c1.0287 0 1.905 0.6223 1.5748 2.1463h0.0889l0.4826-2.0066s-0.9906-0.2794-2.6162-0.2794c-2.3241 0-2.8321 2.0701-2.8321 4.6101 0 2.5527 0.508 4.6101 2.8321 4.6101 0.5334 0 1.0414-0.1397 1.4859-0.4699 0.1905 0.2159 0.4699 0.3429 0.7747 0.3429h0.9271v-0.0762s-0.4826-0.2032-0.4826-0.9271v-2.9718c0-0.7239 0.4826-0.9271 0.4826-0.9271zm6.5659 0v-0.0762h-2.4765v0.0762s0.4826 0.2032 0.4826 0.9271l-0.0127 2.6162c0 0.7239-0.4445 1.3208-0.889 1.3208h-0.4318c-0.4826 0-0.8763-0.381-0.8763-0.8636v-6.6421c0-0.7747 0.635-1.4097 1.4097-1.4097h0.0762c1.0287 0 1.905 0.6223 1.5748 2.1463h0.0889l0.4826-2.0066s-0.9906-0.2794-2.6162-0.2794c-2.3241 0-2.8321 2.0701-2.8321 4.6101 0 2.5527 0.508 4.6101 2.8321 4.6101 0.5334 0 1.0414-0.1397 1.4859-0.4699 0.1905 0.2159 0.4699 0.3429 0.7747 0.3429h0.9271v-0.0762s-0.4826-0.2032-0.4826-0.9271v-2.9718c0-0.7239 0.4826-0.9271 0.4826-0.9271z" fill="#0080ff"/>
  </g>
 </g>
 <g transform="matrix(3.7795 0 0 3.7795 -177.17 71.54)">
  <path class="text" d="m49.759 0.18h-2.8829v0.0762s0.4826 0.1778 0.4826 0.8382v7.0358c0 0.7239-0.4826 0.9271-0.4826 0.9271v0.0762h2.4765v-0.0762s-0.4826-0.2032-0.4826-0.9271v-2.5781c0-0.2286 0.1778-0.4064 0.4064-0.4064h0.5334c3.7338 0 4.3053-4.9657-0.0508-4.9657zm1.524 2.9845c0 1.016-0.3683 1.8288-1.4859 1.8288h-0.5207c-0.2286 0-0.4064-0.1778-0.4064-0.3937v-3.0988c0-0.6604 0.381-1.1938 1.1176-1.1938 0.9779 0 1.2954 0.8255 1.2954 1.8288zm7.8486 4.9149c-0.3048-0.7493-0.6604-1.651-0.9779-2.4765-0.2159-0.5461-0.7239-0.9017-1.3589-1.0414 3.0734-0.5842 3.2893-4.3815-0.762-4.3815h-2.8829v0.0762s0.4826 0.1778 0.4826 0.8382v7.0358c0 0.7239-0.4826 0.9271-0.4826 0.9271v0.0762h2.4765v-0.0762s-0.4826-0.2032-0.4826-0.9271v-6.6294c0-0.6604 0.381-1.1938 1.1176-1.1938 0.9779 0 1.2954 0.8255 1.2954 1.8288v0.508c0 1.016-0.3683 1.8415-1.4859 1.8415h-0.762v0.1397s0.6604-0.1143 1.0922 1.0033c0.3556 0.9017 0.7112 1.8161 0.9906 2.5019 0.2159 0.5461-0.0508 0.9271-0.0508 0.9271v0.0762h2.54v-0.0762s-0.4826-0.3175-0.7493-0.9779zm6.8072 0.0508c-0.4191-1.1557-2.6289-7.9502-2.6289-7.9502h-0.1524s-1.9177 6.0579-2.5654 7.9502c-0.2286 0.6731-0.635 0.9271-0.635 0.9271v0.0762h0.9271v-0.0762s-0.3429-0.1905-0.1016-0.9271c0.0889-0.2794 0.2286-0.7112 0.3937-1.2192 0.0381-0.127 0.1651-0.2159 0.2921-0.2159h2.0955c0.1397 0 0.254 0.0889 0.2921 0.2159 0.1778 0.508 0.3175 0.9398 0.4064 1.2192 0.1905 0.5461-0.1016 0.9271-0.1016 0.9271v0.0762h2.413v-0.0762s-0.3937-0.254-0.635-0.9271zm-4.572-1.8161c0.508-1.5875 1.1176-3.4798 1.1176-3.4798s0.6477 1.8923 1.1811 3.4798c0.0254 0.1143-0.0508 0.2286-0.1651 0.2286h-1.9685c-0.1143 0-0.2032-0.1143-0.1651-0.2286zm11.036-2.0828v-0.0762h-2.4765v0.0762s0.4826 0.2032 0.4826 0.9271l-0.0127 2.6162c0 0.7239-0.4445 1.3208-0.889 1.3208h-0.4318c-0.4826 0-0.8763-0.381-0.8763-0.8636v-6.6421c0-0.7747 0.635-1.4097 1.4097-1.4097h0.0762c1.0287 0 1.905 0.6223 1.5748 2.1463h0.0889l0.4826-2.0066s-0.9906-0.2794-2.6162-0.2794c-2.3241 0-2.8321 2.0701-2.8321 4.6101 0 2.5527 0.508 4.6101 2.8321 4.6101 0.5334 0 1.0414-0.1397 1.4859-0.4699 0.1905 0.2159 0.4699 0.3429 0.7747 0.3429h0.9271v-0.0762s-0.4826-0.2032-0.4826-0.9271v-2.9718c0-0.7239 0.4826-0.9271 0.4826-0.9271zm7.8994-3.9751v-0.0762h-2.0193l-1.3462 5.6261c-0.0254 0.0762-0.1143 0.0762-0.1397 0.0127l-2.0193-5.6388h-1.9304v0.0762s0.4826 0.2032 0.4826 0.9271v6.9469c0 0.7239-0.4826 0.9271-0.4826 0.9271v0.0762h1.1303v-0.0762s-0.4826-0.2032-0.4826-0.9271v-6.5532c0-0.0889 0.1143-0.1016 0.1524-0.0254l2.5527 7.5819h0.127l1.8415-7.4295c0.0254-0.0762 0.1524-0.0635 0.1524 0.0254v6.4008c0 0.7239-0.4826 0.9271-0.4826 0.9271v0.0762h2.4638v-0.0762s-0.4826-0.2032-0.4826-0.9271v-6.9469c0-0.7239 0.4826-0.9271 0.4826-0.9271zm6.1468 7.874c-0.4191-1.1557-2.6289-7.9502-2.6289-7.9502h-0.1524s-1.9177 6.0579-2.5654 7.9502c-0.2286 0.6731-0.635 0.9271-0.635 0.9271v0.0762h0.9271v-0.0762s-0.3429-0.1905-0.1016-0.9271c0.0889-0.2794 0.2286-0.7112 0.3937-1.2192 0.0381-0.127 0.1651-0.2159 0.2921-0.2159h2.0955c0.1397 0 0.254 0.0889 0.2921 0.2159 0.1778 0.508 0.3175 0.9398 0.4064 1.2192 0.1905 0.5461-0.1016 0.9271-0.1016 0.9271v0.0762h2.413v-0.0762s-0.3937-0.254-0.635-0.9271zm-4.572-1.8161c0.508-1.5875 1.1176-3.4798 1.1176-3.4798s0.6477 1.8923 1.1811 3.4798c0.0254 0.1143-0.0508 0.2286-0.1651 0.2286h-1.9685c-0.1143 0-0.2032-0.1143-0.1651-0.2286zm4.064-6.1341 0.3048 2.1463h0.0762s-0.254-2.0066 1.6002-2.0066c0.3683 0 0.4826 0.2159 0.4826 0.7112v7.0993c0 0.7239-0.4826 0.9271-0.4826 0.9271v0.0762h2.4765v-0.0762s-0.4826-0.2032-0.4826-0.9271v-7.0739c0-0.508 0.1524-0.7366 0.4826-0.7366 1.9685 0 1.6002 2.0193 1.6002 2.0193h0.0762l0.3048-2.159zm8.6614 1.0033c0-0.7239 0.4826-0.9271 0.4826-0.9271v-0.0762h-2.4765v0.0762s0.4826 0.2032 0.4826 0.9271v6.9469c0 0.7239-0.4826 0.9271-0.4826 0.9271v0.0762h2.4765v-0.0762s-0.4826-0.2032-0.4826-0.9271zm6.6675 5.3848c-0.1651 1.0668-0.889 2.0955-2.0701 2.0955-0.8763 0-1.7018-0.6477-1.7018-1.9939v-5.08c0-0.7747 0.635-1.4097 1.4097-1.4097h0.0762c1.0287 0 1.905 0.6223 1.5748 2.1463h0.0889l0.4826-2.0066s-0.9906-0.2794-2.6162-0.2794c-2.3241 0-2.8321 2.0701-2.8321 4.6101 0 2.5527 0.508 4.6101 2.8321 4.6101 1.2192 0 2.6162-0.7747 2.8956-2.6924zm6.8961-6.3881h-2.8829v0.0762s0.4826 0.1778 0.4826 0.8382v7.0358c0 0.7239-0.4826 0.9271-0.4826 0.9271v0.0762h2.4765v-0.0762s-0.4826-0.2032-0.4826-0.9271v-2.5781c0-0.2286 0.1778-0.4064 0.4064-0.4064h0.5334c3.7338 0 4.3053-4.9657-0.0508-4.9657zm1.524 2.9845c0 1.016-0.3683 1.8288-1.4859 1.8288h-0.5207c-0.2286 0-0.4064-0.1778-0.4064-0.3937v-3.0988c0-0.6604 0.381-1.1938 1.1176-1.1938 0.9779 0 1.2954 0.8255 1.2954 1.8288zm6.477 4.9657c-0.4191-1.1557-2.6289-7.9502-2.6289-7.9502h-0.1524s-1.9177 6.0579-2.5654 7.9502c-0.2286 0.6731-0.635 0.9271-0.635 0.9271v0.0762h0.9271v-0.0762s-0.3429-0.1905-0.1016-0.9271c0.0889-0.2794 0.2286-0.7112 0.3937-1.2192 0.0381-0.127 0.1651-0.2159 0.2921-0.2159h2.0955c0.1397 0 0.254 0.0889 0.2921 0.2159 0.1778 0.508 0.3175 0.9398 0.4064 1.2192 0.1905 0.5461-0.1016 0.9271-0.1016 0.9271v0.0762h2.413v-0.0762s-0.3937-0.254-0.635-0.9271zm-4.572-1.8161c0.508-1.5875 1.1176-3.4798 1.1176-3.4798s0.6477 1.8923 1.1811 3.4798c0.0254 0.1143-0.0508 0.2286-0.1651 0.2286h-1.9685c-0.1143 0-0.2032-0.1143-0.1651-0.2286zm8.2423-6.1341h-2.8829v0.0762s0.4826 0.1778 0.4826 0.8382v7.0358c0 0.7239-0.4826 0.9271-0.4826 0.9271v0.0762h2.4765v-0.0762s-0.4826-0.2032-0.4826-0.9271v-2.5781c0-0.2286 0.1778-0.4064 0.4064-0.4064h0.5334c3.7338 0 4.3053-4.9657-0.0508-4.9657zm1.524 2.9845c0 1.016-0.3683 1.8288-1.4859 1.8288h-0.5207c-0.2286 0-0.4064-0.1778-0.4064-0.3937v-3.0988c0-0.6604 0.381-1.1938 1.1176-1.1938 0.9779 0 1.2954 0.8255 1.2954 1.8288zm7.2136 3.1496c0.1397 0 0.2413-0.1016 0.2413-0.2413 0-0.127-0.1016-0.2413-0.2413-0.2413-0.127 0-0.2286 0.1143-0.2286 0.2413 0 1.778 0.1905 2.9337-1.2065 2.9337h-1.016c-0.508 0-0.9144-0.4191-0.9144-0.9271v-2.921c0-0.1524 0.127-0.2794 0.2667-0.2794h0.4826c1.0414 0 1.3208 0.8509 1.3208 1.8923v0.127h0.0762v-4.1656h-0.0762v0.127c0 1.0414-0.2794 1.8923-1.3208 1.8923h-0.4826c-0.1397 0-0.2667-0.127-0.2667-0.2794v-3.2385c0-0.508 0.4064-0.9144 0.9144-0.9144h0.5715c1.9558 0 1.5875 2.0193 1.5875 2.0193h0.0889l0.3048-2.159h-5.461v0.0762s0.4826 0.2032 0.4826 0.9271v6.9469c0 0.7239-0.4826 0.9271-0.4826 0.9271v0.0762h5.7658s-0.8382-2.8194-0.4064-2.8194zm6.8199 1.7653c-0.3048-0.7493-0.6604-1.651-0.9779-2.4765-0.2159-0.5461-0.7239-0.9017-1.3589-1.0414 3.0734-0.5842 3.2893-4.3815-0.762-4.3815h-2.8829v0.0762s0.4826 0.1778 0.4826 0.8382v7.0358c0 0.7239-0.4826 0.9271-0.4826 0.9271v0.0762h2.4765v-0.0762s-0.4826-0.2032-0.4826-0.9271v-6.6294c0-0.6604 0.381-1.1938 1.1176-1.1938 0.9779 0 1.2954 0.8255 1.2954 1.8288v0.508c0 1.016-0.3683 1.8415-1.4859 1.8415h-0.762v0.1397s0.6604-0.1143 1.0922 1.0033c0.3556 0.9017 0.7112 1.8161 0.9906 2.5019 0.2159 0.5461-0.0508 0.9271-0.0508 0.9271v0.0762h2.54v-0.0762s-0.4826-0.3175-0.7493-0.9779zm4.5212-4.0513c-0.5715-0.4572-2.2479-1.2319-2.2479-2.5908 0-1.0287 0.8001-1.2573 1.524-1.2573 1.2192 0 1.9177 0.7366 1.6891 2.1844h0.0889l0.3683-2.1844s-1.4224-0.1778-2.0447-0.1778c-1.2573 0-2.9083 0.5461-2.9083 2.1209 0 1.4478 1.0287 2.1844 1.7653 2.7813 0.5842 0.4572 1.9812 1.3335 1.9812 2.2733 0 1.2065-0.7493 1.905-1.4605 1.905-1.2192 0-1.9177-0.7366-1.6891-2.1844h-0.0889l-0.3683 2.1844s1.6256 0.1778 2.2479 0.1778c1.9939 0 2.794-1.1811 2.794-2.54 0-1.1176-0.6096-1.8669-1.651-2.6924z" stroke-width=".26458"/>
 </g>
</svg>
